<svg width="411" height="348" viewBox="0 0 411 348" fill="none" xmlns="http://www.w3.org/2000/svg">
<path d="M270.092 56.923C270.102 56.6471 269.886 56.4155 269.61 56.4058L265.112 56.2484C264.836 56.2387 264.605 56.4546 264.595 56.7306C264.586 57.0066 264.801 57.2381 265.077 57.2478L269.075 57.3877L268.935 61.3853C268.925 61.6613 269.141 61.8928 269.417 61.9025C269.693 61.9121 269.925 61.6962 269.934 61.4203L270.092 56.923ZM112.157 76.9823L111.903 76.5521L112.157 76.9823ZM114.432 193.684L114.744 194.075L114.432 193.684ZM203.697 97.3699L203.803 97.8585L203.697 97.3699ZM35.5408 204.135C35.4587 204.628 35.4587 204.628 35.4588 204.628C35.4588 204.628 35.4588 204.628 35.4589 204.628C35.459 204.628 35.4591 204.628 35.4593 204.628C35.4597 204.629 35.4602 204.629 35.4609 204.629C35.4622 204.629 35.4642 204.629 35.4667 204.63C35.4719 204.631 35.4794 204.632 35.4894 204.633C35.5094 204.637 35.539 204.641 35.578 204.648C35.656 204.66 35.7718 204.679 35.9237 204.702C36.2275 204.749 36.6757 204.816 37.2553 204.898C38.4142 205.061 40.0985 205.283 42.203 205.515L42.3128 204.521C40.2192 204.29 38.545 204.07 37.3949 203.908C36.8199 203.827 36.3759 203.76 36.0762 203.714C35.9264 203.691 35.8126 203.673 35.7365 203.66C35.6984 203.654 35.6698 203.65 35.6508 203.647C35.6413 203.645 35.6342 203.644 35.6296 203.643C35.6272 203.643 35.6255 203.642 35.6244 203.642C35.6238 203.642 35.6234 203.642 35.6232 203.642C35.6231 203.642 35.623 203.642 35.6229 203.642C35.6229 203.642 35.6229 203.642 35.6229 203.642C35.6229 203.642 35.6229 203.642 35.5408 204.135ZM55.7635 206.553C59.9616 206.735 64.5791 206.801 69.3816 206.648L69.3498 205.649C64.5763 205.801 59.9842 205.735 55.8066 205.554L55.7635 206.553ZM82.9594 205.583C87.5004 204.989 92.0197 204.127 96.3345 202.917L96.0644 201.954C91.8044 203.149 87.3333 204.002 82.8297 204.591L82.9594 205.583ZM109.024 197.861C111.06 196.738 112.977 195.481 114.744 194.075L114.121 193.293C112.403 194.66 110.533 195.887 108.541 196.986L109.024 197.861ZM114.744 194.075C116.571 192.622 118.12 191.083 119.418 189.466L118.638 188.84C117.39 190.395 115.894 191.882 114.121 193.293L114.744 194.075ZM124.612 177.605C125.253 173.494 124.993 169.146 124.128 164.655L123.146 164.845C123.996 169.257 124.242 173.485 123.624 177.451L124.612 177.605ZM120.529 152.232C119.081 148.295 117.386 144.301 115.609 140.305L114.695 140.711C116.468 144.699 118.154 148.67 119.59 152.577L120.529 152.232ZM110.302 128.582C108.501 124.577 106.783 120.62 105.315 116.761L104.38 117.116C105.859 121.003 107.586 124.981 109.39 128.992L110.302 128.582ZM101.622 104.537C100.72 100.044 100.509 95.8211 101.3 91.957L100.321 91.7564C99.4943 95.7927 99.7234 100.159 100.642 104.734L101.622 104.537ZM107.319 81.2045C108.74 79.8558 110.427 78.5884 112.412 77.4125L111.903 76.5521C109.86 77.7619 108.111 79.0735 106.631 80.4793L107.319 81.2045ZM112.412 77.4125C114.261 76.3175 116.076 75.4455 117.86 74.7718L117.507 73.8362C115.665 74.5317 113.798 75.4294 111.903 76.5521L112.412 77.4125ZM129.685 72.9601C133.652 73.2023 137.538 74.2414 141.408 75.782L141.778 74.8529C137.84 73.2851 133.847 72.2124 129.746 71.962L129.685 72.9601ZM152.328 81.208C155.818 83.1976 159.31 85.3437 162.89 87.448L163.397 86.5859C159.843 84.4973 156.317 82.331 152.823 80.3392L152.328 81.208ZM173.728 93.2959C177.47 95.0618 181.325 96.549 185.331 97.5259L185.568 96.5544C181.644 95.5977 177.855 94.1375 174.155 92.3915L173.728 93.2959ZM197.645 98.7062C199.657 98.5893 201.708 98.3142 203.803 97.8585L203.59 96.8813C201.547 97.3259 199.547 97.594 197.587 97.7079L197.645 98.7062ZM203.803 97.8585C205.879 97.4069 207.988 96.8186 210.115 96.1155L209.801 95.166C207.703 95.8595 205.628 96.4381 203.59 96.8813L203.803 97.8585ZM222.18 91.0893C226.044 89.1822 229.88 87.0322 233.599 84.7646L233.078 83.9107C229.38 86.1659 225.57 88.301 221.737 90.1926L222.18 91.0893ZM244.502 77.6056C248.288 74.9516 251.818 72.3079 254.972 69.8476L254.357 69.0591C251.214 71.5107 247.697 74.1441 243.928 76.7869L244.502 77.6056ZM265.054 61.5945C266.6 60.2657 267.819 59.1858 268.652 58.4377C269.068 58.0637 269.388 57.7725 269.604 57.5747C269.712 57.4757 269.794 57.4001 269.849 57.3491C269.877 57.3236 269.898 57.3043 269.912 57.2912C269.919 57.2847 269.924 57.2798 269.928 57.2764C269.929 57.2748 269.931 57.2735 269.932 57.2726C269.932 57.2722 269.932 57.2719 269.933 57.2716C269.933 57.2715 269.933 57.2714 269.933 57.2714C269.933 57.2713 269.933 57.2713 269.933 57.2713C269.933 57.2713 269.933 57.2712 269.592 56.9055C269.251 56.5398 269.251 56.5398 269.251 56.5398C269.251 56.5398 269.251 56.5398 269.251 56.5399C269.251 56.5399 269.251 56.5399 269.251 56.54C269.251 56.5402 269.251 56.5405 269.25 56.5409C269.249 56.5416 269.248 56.5428 269.246 56.5443C269.243 56.5474 269.238 56.5521 269.231 56.5584C269.218 56.5709 269.197 56.5898 269.17 56.6148C269.116 56.6648 269.035 56.7394 268.928 56.8372C268.715 57.033 268.397 57.322 267.983 57.6939C267.156 58.4375 265.943 59.5125 264.403 60.8361L265.054 61.5945Z" fill="#0E625F"/>
<path d="M146.403 168.089C146.164 168.228 146.085 168.535 146.225 168.773L148.505 172.653C148.645 172.891 148.951 172.97 149.189 172.83C149.427 172.69 149.507 172.384 149.367 172.146L147.34 168.697L150.789 166.671C151.027 166.531 151.106 166.224 150.967 165.986C150.827 165.748 150.52 165.669 150.282 165.808L146.403 168.089ZM248.068 290.603L247.842 291.049L248.068 290.603ZM345.329 226.068L345.493 225.595L345.329 226.068ZM216.158 202.416L216.514 202.065L216.158 202.416ZM396.477 287.035C396.937 286.84 396.937 286.84 396.937 286.84C396.937 286.84 396.937 286.84 396.937 286.84C396.937 286.84 396.937 286.84 396.937 286.839C396.937 286.839 396.937 286.839 396.936 286.838C396.936 286.837 396.935 286.835 396.934 286.832C396.932 286.828 396.929 286.821 396.925 286.811C396.917 286.793 396.905 286.765 396.89 286.729C396.858 286.656 396.812 286.549 396.75 286.408C396.627 286.126 396.443 285.712 396.201 285.179C395.717 284.114 395 282.573 394.067 280.673L393.169 281.113C394.098 283.004 394.81 284.535 395.29 285.593C395.53 286.121 395.712 286.532 395.834 286.81C395.895 286.948 395.941 287.054 395.971 287.125C395.987 287.16 395.998 287.187 396.006 287.205C396.01 287.214 396.012 287.22 396.014 287.224C396.015 287.227 396.016 287.228 396.016 287.229C396.016 287.23 396.017 287.23 396.017 287.23C396.017 287.231 396.017 287.231 396.017 287.231C396.017 287.231 396.017 287.231 396.017 287.231C396.017 287.231 396.017 287.231 396.477 287.035ZM387.668 268.672C385.568 265.033 383.147 261.1 380.441 257.13L379.614 257.693C382.304 261.639 384.712 265.55 386.801 269.172L387.668 268.672ZM372.257 246.243C369.319 242.73 366.167 239.378 362.831 236.387L362.163 237.131C365.457 240.085 368.576 243.4 371.489 246.885L372.257 246.243ZM351.756 228.391C349.716 227.275 347.626 226.332 345.493 225.595L345.166 226.541C347.242 227.257 349.28 228.177 351.276 229.268L351.756 228.391ZM345.493 225.595C343.285 224.833 341.155 224.352 339.095 224.124L338.985 225.118C340.966 225.337 343.024 225.801 345.166 226.541L345.493 225.595ZM326.299 226.105C322.486 227.769 318.956 230.322 315.631 233.461L316.317 234.188C319.585 231.103 323.02 228.627 326.699 227.021L326.299 226.105ZM307.078 243.164C304.533 246.498 302.072 250.072 299.653 253.715L300.486 254.268C302.9 250.633 305.347 247.079 307.873 243.771L307.078 243.164ZM292.608 264.484C290.194 268.152 287.777 271.725 285.308 275.035L286.109 275.633C288.596 272.299 291.026 268.707 293.443 265.033L292.608 264.484ZM276.974 284.709C273.666 287.881 270.215 290.325 266.53 291.73L266.887 292.665C270.736 291.197 274.297 288.661 277.666 285.431L276.974 284.709ZM254.227 292.42C252.327 291.945 250.352 291.202 248.295 290.157L247.842 291.049C249.959 292.124 252.004 292.895 253.984 293.39L254.227 292.42ZM248.295 290.157C246.378 289.184 244.669 288.121 243.143 286.977L242.543 287.777C244.118 288.958 245.877 290.051 247.842 291.049L248.295 290.157ZM235.269 277.97C233.346 274.492 232.137 270.655 231.361 266.563L230.379 266.75C231.169 270.914 232.406 274.859 234.394 278.454L235.269 277.97ZM230.081 254.437C229.887 250.424 229.825 246.326 229.68 242.176L228.68 242.211C228.825 246.33 228.888 250.468 229.082 254.485L230.081 254.437ZM228.8 229.892C228.282 225.787 227.469 221.736 226.144 217.831L225.197 218.153C226.495 221.977 227.296 225.958 227.808 230.017L228.8 229.892ZM220.533 206.806C219.355 205.171 218.022 203.588 216.514 202.065L215.803 202.768C217.275 204.254 218.574 205.798 219.722 207.391L220.533 206.806ZM216.514 202.065C215.019 200.555 213.391 199.091 211.656 197.673L211.023 198.448C212.734 199.846 214.336 201.287 215.803 202.768L216.514 202.065ZM200.941 190.189C197.259 187.951 193.386 185.868 189.477 183.946L189.036 184.843C192.924 186.755 196.769 188.824 200.422 191.044L200.941 190.189ZM177.586 178.586C173.315 176.816 169.19 175.255 165.422 173.913L165.086 174.855C168.841 176.192 172.95 177.747 177.203 179.51L177.586 178.586ZM153.048 169.833C151.097 169.241 149.532 168.792 148.453 168.491C147.914 168.34 147.497 168.227 147.214 168.151C147.073 168.113 146.965 168.084 146.892 168.065C146.856 168.055 146.828 168.048 146.81 168.043C146.801 168.041 146.794 168.039 146.789 168.038C146.787 168.037 146.785 168.036 146.784 168.036C146.783 168.036 146.782 168.036 146.782 168.036C146.782 168.036 146.782 168.036 146.782 168.036C146.782 168.036 146.782 168.036 146.782 168.036C146.782 168.036 146.782 168.036 146.656 168.52C146.53 169.004 146.53 169.004 146.53 169.004C146.53 169.004 146.53 169.004 146.53 169.004C146.53 169.004 146.53 169.004 146.531 169.004C146.531 169.004 146.531 169.004 146.532 169.004C146.533 169.004 146.534 169.005 146.537 169.005C146.541 169.006 146.548 169.008 146.557 169.01C146.574 169.015 146.601 169.022 146.637 169.032C146.708 169.05 146.814 169.079 146.954 169.116C147.234 169.192 147.648 169.304 148.184 169.454C149.256 169.754 150.814 170.201 152.757 170.79L153.048 169.833Z" fill="#0E625F"/>
<g clip-path="url(#clip0_324_158)">
<path d="M247.54 168.666C243.183 169.592 238.901 166.811 237.975 162.455L229.025 120.347C224.592 99.4942 204.021 86.1351 183.168 90.5676C162.315 95 148.956 115.571 153.389 136.424L162.339 178.532C163.265 182.888 160.484 187.171 156.128 188.097C151.771 189.023 147.489 186.242 146.563 181.885L137.612 139.777C131.331 110.225 150.263 81.0726 179.815 74.7911C209.367 68.5096 238.52 87.4414 244.801 116.994L253.752 159.101C254.678 163.458 251.897 167.74 247.54 168.666Z" fill="#B6C4CF"/>
<path d="M179.815 74.7911C177.143 75.359 174.56 76.1161 172.072 77.0414C198.72 75.366 223.357 93.4566 229.07 120.337L238.021 162.445C238.053 162.598 238.071 162.751 238.094 162.904C239.212 166.998 243.336 169.56 247.54 168.666C251.896 167.74 254.677 163.458 253.751 159.101L244.801 116.994C238.52 87.4414 209.367 68.5096 179.815 74.7911Z" fill="#9FACBA"/>
<path d="M284.971 256.908L157.824 283.934C150.48 285.494 143.262 280.807 141.701 273.463L121.67 179.227C120.11 171.883 124.797 164.665 132.141 163.104L259.287 136.078C266.63 134.517 273.849 139.205 275.41 146.548L295.44 240.785C297.002 248.128 292.314 255.347 284.971 256.908Z" fill="#0E625F"/>
<path d="M226.483 195.208C224.116 184.074 213.171 176.965 202.036 179.332C190.9 181.699 183.793 192.645 186.16 203.779C187.743 211.228 193.167 216.87 199.917 219.083L204.859 242.332C206.046 247.916 211.535 251.48 217.119 250.293C222.703 249.106 226.268 243.618 225.081 238.033L220.139 214.785C225.405 210.018 228.066 202.658 226.483 195.208Z" fill="#0E625F"/>
<path d="M259.287 136.078L243.557 139.421C250.9 137.861 258.119 142.548 259.679 149.892L279.71 244.128C281.271 251.472 276.583 258.69 269.24 260.251L284.971 256.907C292.314 255.346 297.002 248.128 295.441 240.785L275.41 146.548C273.849 139.205 266.631 134.517 259.287 136.078Z" fill="#0E625F"/>
</g>
<defs>
<clipPath id="clip0_324_158">
<rect width="200" height="200" fill="white" transform="translate(82 95.5823) rotate(-12)"/>
</clipPath>
</defs>
</svg>
