<svg width="72" height="72" viewBox="0 0 72 72" fill="none" xmlns="http://www.w3.org/2000/svg">
<path d="M30 3.4641C33.7128 1.32051 38.2872 1.32051 42 3.4641L61.1769 14.5359C64.8897 16.6795 67.1769 20.641 67.1769 24.9282V47.0718C67.1769 51.359 64.8897 55.3205 61.1769 57.4641L42 68.5359C38.2872 70.6795 33.7128 70.6795 30 68.5359L10.8231 57.4641C7.11027 55.3205 4.82309 51.359 4.82309 47.0718V24.9282C4.82309 20.641 7.11027 16.6795 10.8231 14.5359L30 3.4641Z" fill="#FEF6F6"/>
<path d="M45.0322 33.7418V34.1946C45.0322 34.7493 45.1217 35.3004 45.2971 35.8267L46.3225 38.9031H48.258V31.8063H46.9677C45.8988 31.8064 45.0322 32.6728 45.0322 33.7418Z" fill="#5A4146"/>
<path d="M53.8659 35.0822L52.7741 38.9033L47.6128 34.3872C46.9002 34.3872 46.3225 33.8094 46.3225 33.0968C46.3225 32.0279 47.1891 31.1614 48.258 31.1614H52.7741C53.4867 31.1614 54.0644 31.7391 54.0644 32.4517V33.6643C54.0645 34.1438 53.9976 34.621 53.8659 35.0822Z" fill="#694B4B"/>
<path d="M51.4835 40.8391H47.6125V43.6945H51.4835V40.8391Z" fill="#E6AF78"/>
<path d="M47.6128 42.0237C48.2112 42.2668 48.8637 42.4037 49.5483 42.4037C50.2329 42.4037 50.8854 42.2668 51.4837 42.0237V40.8386H47.6128V42.0237Z" fill="#D29B6E"/>
<path d="M54.5961 43.293L51.4836 42.4038L49.5482 43.6881L47.6128 42.4037L44.5004 43.293C43.6695 43.5304 43.0967 44.2899 43.0967 45.154V49.8709C43.0967 50.2272 43.3855 50.516 43.7418 50.516H55.3547C55.7111 50.516 55.9999 50.2272 55.9999 49.8709V45.154C55.9999 44.2898 55.427 43.5304 54.5961 43.293Z" fill="#D5DCED"/>
<path d="M50.1936 50.516H48.9033L49.2259 43.6941H49.8711L50.1936 50.516Z" fill="#AFB9D2"/>
<path d="M49.5484 41.4839C47.4105 41.4839 45.6775 39.7508 45.6775 37.613V36.8571C45.6775 36.5149 45.8134 36.1867 46.0554 35.9447L47.2253 34.7748C47.473 34.527 47.8118 34.3846 48.1619 34.3956C50.2243 34.4607 52.0498 34.9025 53.0476 35.8771C53.2919 36.1157 53.4194 36.4494 53.4194 36.7909V37.613C53.4194 39.7509 51.6863 41.4839 49.5484 41.4839Z" fill="#F0C087"/>
<path d="M47.613 37.0171C47.613 36.2728 48.238 35.6813 48.9807 35.7286C50.2831 35.8117 52.2158 36.0294 53.4015 36.5997C53.3628 36.3275 53.2458 36.0706 53.0476 35.877C52.0498 34.9024 50.2243 34.4606 48.1619 34.3955L48.1619 34.3956V34.3955C47.8118 34.3845 47.473 34.527 47.2253 34.7746L46.0555 35.9445C45.8134 36.1864 45.6775 36.5146 45.6775 36.8569V37.6128C45.6775 39.3781 46.8604 40.8644 48.4759 41.3299C47.9382 40.6664 47.613 39.8243 47.613 38.9031L47.613 37.0171Z" fill="#E6AF78"/>
<path d="M53.4194 47.0764C53.4194 46.5631 53.6233 46.0708 53.9863 45.7078L55.647 44.0471C55.869 44.3644 56.0001 44.7463 56.0001 45.1541V49.8709C56.0001 50.2273 55.7112 50.5161 55.3549 50.5161H53.4194V47.0764Z" fill="#C7CFE2"/>
<path d="M49.8711 44.9844H49.2259C49.0478 44.9844 48.9033 44.84 48.9033 44.6618V43.6941H50.1936V44.6618C50.1936 44.84 50.0493 44.9844 49.8711 44.9844Z" fill="#959CB5"/>
<path d="M49.5484 43.6881L48.4549 44.5233C48.2665 44.6673 47.9942 44.6096 47.8804 44.4016L46.8994 42.6102L47.2943 42.008C47.3818 41.8744 47.5685 41.8516 47.6856 41.9602L49.5484 43.6881Z" fill="#C7CFE2"/>
<path d="M49.5483 43.6882L50.6419 44.5235C50.8302 44.6674 51.1026 44.6097 51.2164 44.4018L52.1973 42.6103L51.8025 42.0081C51.7149 41.8745 51.5283 41.8518 51.4112 41.9603L49.5483 43.6882Z" fill="#C7CFE2"/>
<path d="M27.5487 41.2144C26.9974 39.7536 26.5601 37.2425 26.4656 35.935C26.286 33.4471 24.411 31.4189 21.8765 31.4189C19.342 31.4189 17.467 33.4471 17.2874 35.935C17.1929 37.2424 16.7556 39.7536 16.2043 41.2144C16.0828 41.5364 16.2231 41.8915 16.5402 42.0353C17.1309 42.303 18.3906 42.8275 19.9097 43.0318H23.8432C25.3552 42.8271 26.6237 42.3022 27.2127 42.0353C27.5299 41.8915 27.6702 41.5364 27.5487 41.2144Z" fill="#5A4146"/>
<path d="M27.2126 42.0354C27.5297 41.8916 27.67 41.5366 27.5484 41.2145C26.9972 39.7537 26.5598 37.2426 26.4654 35.9352C26.2858 33.4472 24.4108 31.4191 21.8764 31.4191C21.87 31.4191 21.8637 31.4191 21.8572 31.4191C19.9125 31.427 19.2252 34.0793 20.8994 35.0689C20.9999 35.1284 21.0644 35.157 21.0644 35.157L22.5307 43.0319H23.8431C25.3551 42.827 26.6236 42.3023 27.2126 42.0354Z" fill="#694B4B"/>
<path d="M26.543 44.3272L24.4552 43.2834C24.018 43.0648 23.7418 42.6179 23.7419 42.1292L23.742 40.1936H19.8709V42.1292C19.8709 42.618 19.5948 43.0647 19.1577 43.2833L17.0698 44.3272C16.4141 44.655 16 45.3252 16 46.0582V49.8709C16 50.2271 16.2888 50.516 16.6452 50.516H26.9677C27.3241 50.516 27.6129 50.2271 27.6129 49.8709V46.0583C27.6129 45.3252 27.1987 44.655 26.543 44.3272Z" fill="#E6AF78"/>
<path d="M21.8066 42.7741C22.5013 42.7741 23.1667 42.6309 23.7767 42.376C23.7606 42.2947 23.742 42.2138 23.742 42.129L23.7421 40.1935H19.871V42.1291C19.871 42.2143 19.8524 42.2956 19.8362 42.3772C20.4466 42.6308 21.1117 42.7741 21.8066 42.7741Z" fill="#D29B6E"/>
<path d="M26.543 44.3272L25.0556 43.5836C24.3659 44.6486 23.1698 45.3549 21.8065 45.3549C20.4432 45.3549 19.247 44.6486 18.5573 43.5835L17.0699 44.3272C16.4142 44.6551 16 45.3252 16 46.0583V49.8709C16 50.2272 16.2888 50.5161 16.6452 50.5161H26.9677C27.3241 50.5161 27.6129 50.2272 27.6129 49.8709V46.0583C27.6129 45.3252 27.1987 44.6551 26.543 44.3272Z" fill="#D5DCED"/>
<path d="M21.8065 41.4838C19.8383 41.4838 18.2133 40.0151 17.9676 38.1139C17.932 37.8385 18.0644 37.5684 18.3124 37.4433C18.6094 37.2934 19.0411 37.0408 19.4544 36.672C19.9146 36.2614 20.1846 35.8284 20.3371 35.5105C20.4684 35.2367 20.7703 35.0819 21.0645 35.157C23.3361 35.7363 24.8826 36.9181 25.4437 37.4006C25.5943 37.5302 25.6811 37.7212 25.6656 37.9193C25.5093 39.9138 23.8412 41.4838 21.8065 41.4838Z" fill="#F0C087"/>
<path d="M25.4436 37.4005C24.8825 36.918 23.336 35.7362 21.0644 35.1568C20.7702 35.0818 20.4683 35.2366 20.337 35.5104C20.2215 35.7511 20.0307 36.0579 19.7475 36.371C19.7474 36.3718 19.7472 36.3724 19.7471 36.3732C19.6592 36.4728 19.5656 36.5726 19.4543 36.672C19.0411 37.0408 18.6094 37.2934 18.3124 37.4432C18.0644 37.5683 17.9321 37.8385 17.9676 38.114C18.1883 39.8214 19.5244 41.1804 21.2196 41.4397C20.4472 40.9142 19.871 40.1915 19.871 38.9032V37.9832C20.0175 37.875 20.1651 37.7672 20.3134 37.6348C20.672 37.3148 20.985 36.9447 21.2361 36.5463C22.9738 37.0886 24.1519 37.9918 24.5986 38.3758C24.7208 38.483 25.0243 38.7627 25.3793 39.0958C25.532 38.7282 25.633 38.3338 25.6654 37.9193C25.681 37.7211 25.5942 37.5301 25.4436 37.4005Z" fill="#E6AF78"/>
<path d="M16.3933 44.8953C16.1448 45.2251 16 45.6297 16 46.0582V49.8709C16 50.2272 16.2888 50.516 16.6452 50.516H18.5806V47.2653C18.5806 46.8733 18.4024 46.5025 18.0963 46.2577L16.3933 44.8953Z" fill="#C7CFE2"/>
<path d="M45.2689 43.4467L39.8709 41.4838L36 42.7742L32.129 41.4838L26.731 43.4468C25.7111 43.8177 25.0322 44.7869 25.0322 45.872V49.871C25.0322 50.2272 25.3211 50.5161 25.6774 50.5161H46.3225C46.6789 50.5161 46.9677 50.2272 46.9677 49.871V45.872C46.9677 44.7868 46.2889 43.8176 45.2689 43.4467Z" fill="#FF507D"/>
<path d="M35.3242 44.0645L34.7097 50.5159H37.2903L36.6759 44.0645H35.3242Z" fill="#707487"/>
<path d="M36.6774 44.9509H35.3227C35.0733 44.9509 34.8711 44.7487 34.8711 44.4992V42.7742H37.129V44.4992C37.1291 44.7486 36.9269 44.9509 36.6774 44.9509Z" fill="#5B5D6E"/>
<path d="M46.2732 44.1136C46.7088 44.5812 46.9676 45.204 46.9676 45.8719V49.8708C46.9676 50.2272 46.6788 50.516 46.3225 50.516H43.0967V48.3591C43.0967 47.6747 43.3686 47.0183 43.8525 46.5343L46.2732 44.1136Z" fill="#D23C69"/>
<path d="M43.0969 28.1789V22.7742C43.0969 22.0615 42.5192 21.4839 41.8066 21.4839H34.0646C31.2142 21.4839 28.9033 23.7947 28.9033 26.6452V28.1789C28.9033 28.8723 29.0151 29.5612 29.2344 30.219L29.4492 30.8633C29.515 31.0607 29.5485 31.2673 29.5485 31.4754V31.8065H42.4517V31.4754C42.4517 31.2673 42.4852 31.0607 42.551 30.8633L42.7657 30.219C42.9851 29.5612 43.0969 28.8722 43.0969 28.1789Z" fill="#5A4146"/>
<path d="M32.1292 24.1048C32.1292 25.5523 33.3026 26.7258 34.7501 26.7258H35.113L35.2881 31.8064H42.4516V31.4753C42.4516 31.2672 42.4852 31.0606 42.5509 30.8633L42.7657 30.219C42.985 29.5612 43.0968 28.8722 43.0968 28.1788V22.7742C43.0968 22.0615 42.5191 21.4839 41.8065 21.4839H34.7501C33.3026 21.4839 32.1292 22.6573 32.1292 24.1048Z" fill="#694B4B"/>
<path d="M39.8711 36.968H32.1289V42.7743H39.8711V36.968Z" fill="#E6AF78"/>
<path d="M32.129 39.1492C33.2687 39.8094 34.5881 40.1934 35.9999 40.1934C37.4117 40.1934 38.7313 39.8094 39.8709 39.1492V36.9677H32.1289L32.129 39.1492Z" fill="#D29B6E"/>
<path d="M36.0001 42.7741L33.9425 44.8317C33.6659 45.1083 33.2088 45.0771 32.9724 44.7656L30.8389 41.9543L31.3969 40.7783C31.5616 40.4313 31.9911 40.3041 32.3182 40.5056L36.0001 42.7741Z" fill="#D23C69"/>
<path d="M36 42.7741L38.0577 44.8317C38.3342 45.1083 38.7913 45.0771 39.0277 44.7656L41.1612 41.9543L40.6032 40.7783C40.4385 40.4313 40.009 40.3041 39.682 40.5056L36 42.7741Z" fill="#D23C69"/>
<path d="M36 38.9032C32.4369 38.9032 29.5483 36.0147 29.5483 32.4516V31.6957C29.5483 31.3536 29.6843 31.0254 29.9262 30.7833L30.4607 30.2489C30.7026 30.0069 30.8386 29.6787 30.8386 29.3365V27.7899C30.8386 27.4911 31.0392 27.2316 31.3299 27.1629C32.8558 26.8025 37.604 25.9489 40.8353 28.3254C41.0451 28.4797 41.1612 28.7333 41.1612 28.9937V29.3365C41.1612 29.6786 41.2971 30.0068 41.539 30.2489L42.0735 30.7833C42.3154 31.0253 42.4514 31.3535 42.4514 31.6957V32.4516C42.4516 36.0147 39.5631 38.9032 36 38.9032Z" fill="#F0C087"/>
<path d="M40.8354 28.3255C38.5627 26.654 35.5439 26.5816 33.4194 26.8105C32.5232 26.9069 31.7827 27.0561 31.3301 27.163C31.0394 27.2316 30.8387 27.4912 30.8387 27.7899V29.3364C30.8387 29.6787 30.7028 30.0069 30.4608 30.2489L29.9263 30.7833C29.6843 31.0254 29.5483 31.3536 29.5483 31.6958V32.4516C29.5483 35.7504 32.0257 38.4661 35.2204 38.8516C34.1072 37.6923 33.4193 36.1213 33.4193 34.3871V29.6714C33.4193 29.0176 33.9054 28.4712 34.5541 28.3898C36.1024 28.1957 38.9382 28.079 41.1612 29.3365V28.9937C41.1613 28.7333 41.0451 28.4797 40.8354 28.3255Z" fill="#E6AF78"/>
<path d="M25.7267 44.1136C25.2911 44.5812 25.0322 45.204 25.0322 45.8719V49.8708C25.0322 50.2272 25.3211 50.516 25.6774 50.516H28.9032V48.3591C28.9032 47.6747 28.6313 47.0183 28.1473 46.5343L25.7267 44.1136Z" fill="#D23C69"/>
</svg>
