<svg width="80" height="80" viewBox="0 0 80 80" fill="none" xmlns="http://www.w3.org/2000/svg">
<path d="M34 3.4641C37.7128 1.32051 42.2872 1.32051 46 3.4641L68.641 16.5359C72.3538 18.6795 74.641 22.641 74.641 26.9282V53.0718C74.641 57.359 72.3538 61.3205 68.641 63.4641L46 76.5359C42.2872 78.6795 37.7128 78.6795 34 76.5359L11.359 63.4641C7.64617 61.3205 5.35898 57.359 5.35898 53.0718V26.9282C5.35898 22.641 7.64617 18.6795 11.359 16.5359L34 3.4641Z" fill="#FEF6F6"/>
<path d="M47.9761 27.449C47.9761 31.5615 44.1968 34.898 39.5386 34.898C34.8804 34.898 31.1011 31.5615 31.1011 27.449C31.1011 23.3365 34.8804 20 39.5386 20C44.1968 20 47.9761 23.3365 47.9761 27.449ZM38.1323 39.2433V59.728L33.8784 57.8503C32.0415 57.0433 30.0552 56.5312 28.0073 56.3527L19.5698 55.6078C18.1372 55.4759 17.0386 54.4129 17.0386 53.1326V37.381C17.0386 36.0076 18.2954 34.898 19.8511 34.898H22.5142C28.104 34.898 33.5532 36.4189 38.1323 39.2433ZM40.9448 59.728V39.2433C45.5239 36.4189 50.9731 34.898 56.563 34.898H59.2261C60.7817 34.898 62.0386 36.0076 62.0386 37.381V53.1326C62.0386 54.4051 60.9399 55.4759 59.5073 55.6L51.0698 56.3449C49.0308 56.5234 47.0356 57.0355 45.1987 57.8425L40.9448 59.728Z" fill="#FF8484"/>
</svg>
