<svg width="10" height="10" viewBox="0 0 10 10" fill="none" xmlns="http://www.w3.org/2000/svg">
<path d="M3.28749 7.9623L4.99999 6.6623L6.71249 7.9623L6.02499 5.7998L7.59999 4.7748H5.71249L4.99999 2.6123L4.28749 4.7748H2.39999L3.97499 5.7998L3.28749 7.9623ZM4.99999 7.6498L2.83749 9.2998C2.76249 9.35814 2.68749 9.38314 2.61249 9.3748C2.53749 9.36647 2.46666 9.34147 2.39999 9.2998C2.33333 9.25814 2.28541 9.20189 2.25624 9.13105C2.22708 9.06022 2.22499 8.97897 2.24999 8.8873L3.07499 6.1998L0.949993 4.6748C0.874993 4.6248 0.827076 4.56022 0.806242 4.48105C0.785409 4.40189 0.787493 4.32897 0.812493 4.2623C0.837493 4.19564 0.879159 4.13522 0.937493 4.08105C0.995826 4.02689 1.07083 3.9998 1.16249 3.9998H3.79999L4.63749 1.1998C4.66249 1.10814 4.71041 1.03939 4.78124 0.993555C4.85208 0.947721 4.92499 0.924805 4.99999 0.924805C5.07499 0.924805 5.14791 0.947721 5.21874 0.993555C5.28958 1.03939 5.33749 1.10814 5.36249 1.1998L6.19999 3.9998H8.83749C8.92916 3.9998 9.00416 4.02689 9.06249 4.08105C9.12083 4.13522 9.16249 4.19564 9.18749 4.2623C9.21249 4.32897 9.21458 4.40189 9.19374 4.48105C9.17291 4.56022 9.12499 4.6248 9.04999 4.6748L6.92499 6.1998L7.74999 8.8873C7.77499 8.97897 7.77291 9.06022 7.74374 9.13105C7.71458 9.20189 7.66666 9.25814 7.59999 9.2998C7.53333 9.34147 7.46249 9.36647 7.38749 9.3748C7.31249 9.38314 7.23749 9.35814 7.16249 9.2998L4.99999 7.6498Z" fill="#69737C"/>
</svg>
