<svg width="35" height="35" viewBox="0 0 35 35" fill="none" xmlns="http://www.w3.org/2000/svg">
<path d="M29.5312 21.1823L26.9427 18.5938L28 17.5365C28.1944 17.342 28.4497 17.2448 28.7656 17.2448C29.0816 17.2448 29.3368 17.342 29.5312 17.5365L30.5885 18.5938C30.783 18.7882 30.8802 19.0434 30.8802 19.3594C30.8802 19.6753 30.783 19.9306 30.5885 20.125L29.5312 21.1823ZM17.5 30.625V28.0365L25.375 20.1615L27.9635 22.75L20.0885 30.625H17.5ZM4.375 22.9688V20.7812H15.3125V22.9688H4.375ZM4.375 16.9531V14.7656H21.5104V16.9531H4.375ZM4.375 10.9375V8.75H21.5104V10.9375H4.375Z" fill="#0E625F"/>
</svg>
