<svg width="32" height="32" viewBox="0 0 32 32" fill="none" xmlns="http://www.w3.org/2000/svg">
<rect width="32" height="32" rx="6" fill="#F7A1A1" fill-opacity="0.2"/>
<path d="M11.8938 24C11.5938 24 11.3312 23.875 11.1062 23.625C10.8812 23.375 10.7688 23.0833 10.7688 22.75V10.875H10.5625C10.4 10.875 10.2656 10.816 10.1594 10.6979C10.0531 10.5799 10 10.4306 10 10.25C10 10.0694 10.0531 9.92014 10.1594 9.80208C10.2656 9.68403 10.4 9.625 10.5625 9.625H13.525C13.525 9.44444 13.5781 9.29514 13.6844 9.17708C13.7906 9.05903 13.925 9 14.0875 9H17.9125C18.075 9 18.2094 9.05903 18.3156 9.17708C18.4219 9.29514 18.475 9.44444 18.475 9.625H21.4375C21.6 9.625 21.7344 9.68403 21.8406 9.80208C21.9469 9.92014 22 10.0694 22 10.25C22 10.4306 21.9469 10.5799 21.8406 10.6979C21.7344 10.816 21.6 10.875 21.4375 10.875H21.2313V22.75C21.2313 23.0833 21.1187 23.375 20.8937 23.625C20.6687 23.875 20.4062 24 20.1063 24H11.8938ZM11.8938 10.875V22.75H20.1063V10.875H11.8938ZM13.8813 20.3333C13.8813 20.5139 13.9344 20.6632 14.0406 20.7812C14.1469 20.8993 14.2812 20.9583 14.4438 20.9583C14.6063 20.9583 14.7406 20.8993 14.8469 20.7812C14.9531 20.6632 15.0063 20.5139 15.0063 20.3333V13.2708C15.0063 13.0903 14.9531 12.941 14.8469 12.8229C14.7406 12.7049 14.6063 12.6458 14.4438 12.6458C14.2812 12.6458 14.1469 12.7049 14.0406 12.8229C13.9344 12.941 13.8813 13.0903 13.8813 13.2708V20.3333ZM16.9937 20.3333C16.9937 20.5139 17.0469 20.6632 17.1531 20.7812C17.2594 20.8993 17.3937 20.9583 17.5562 20.9583C17.7188 20.9583 17.8531 20.8993 17.9594 20.7812C18.0656 20.6632 18.1187 20.5139 18.1187 20.3333V13.2708C18.1187 13.0903 18.0656 12.941 17.9594 12.8229C17.8531 12.7049 17.7188 12.6458 17.5562 12.6458C17.3937 12.6458 17.2594 12.7049 17.1531 12.8229C17.0469 12.941 16.9937 13.0903 16.9937 13.2708V20.3333Z" fill="#EB5757"/>
</svg>
