<svg width="32" height="32" viewBox="0 0 32 32" fill="none" xmlns="http://www.w3.org/2000/svg">
<rect width="32" height="32" rx="6" fill="#F0FFF9"/>
<path d="M24.3334 15.2333V16C24.3324 17.797 23.7505 19.5455 22.6745 20.9848C21.5986 22.4241 20.0862 23.477 18.3629 23.9866C16.6396 24.4961 14.7978 24.4349 13.1121 23.8121C11.4265 23.1894 9.98729 22.0384 9.00922 20.5309C8.03114 19.0233 7.56657 17.24 7.68481 15.4469C7.80305 13.6538 8.49775 11.9469 9.66531 10.5809C10.8329 9.21482 12.4107 8.26279 14.1636 7.86676C15.9164 7.47073 17.7503 7.65192 19.3918 8.3833" stroke="#27AE60" stroke-width="1.2" stroke-linecap="round" stroke-linejoin="round"/>
<path d="M24.3333 9.33325L16 17.6749L13.5 15.1749" stroke="#27AE60" stroke-width="1.2" stroke-linecap="round" stroke-linejoin="round"/>
</svg>
