<svg width="411" height="366" viewBox="0 0 411 366" fill="none" xmlns="http://www.w3.org/2000/svg">
<path d="M270.092 56.9217C270.102 56.6457 269.886 56.4141 269.61 56.4045L265.112 56.247C264.836 56.2374 264.605 56.4532 264.595 56.7292C264.586 57.0052 264.801 57.2367 265.077 57.2464L269.075 57.3864L268.935 61.3839C268.925 61.6599 269.141 61.8914 269.417 61.9011C269.693 61.9108 269.925 61.6949 269.934 61.4189L270.092 56.9217ZM112.157 76.981L111.903 76.5507L112.157 76.981ZM114.432 193.683L114.744 194.074L114.432 193.683ZM203.697 97.3685L203.803 97.8571L203.697 97.3685ZM35.5408 204.134C35.4587 204.627 35.4587 204.627 35.4588 204.627C35.4588 204.627 35.4588 204.627 35.4589 204.627C35.459 204.627 35.4591 204.627 35.4593 204.627C35.4597 204.627 35.4602 204.627 35.4609 204.627C35.4622 204.628 35.4642 204.628 35.4667 204.628C35.4719 204.629 35.4794 204.63 35.4894 204.632C35.5094 204.635 35.539 204.64 35.578 204.646C35.656 204.659 35.7718 204.677 35.9237 204.701C36.2275 204.748 36.6757 204.815 37.2553 204.897C38.4142 205.06 40.0985 205.281 42.203 205.514L42.3128 204.52C40.2192 204.289 38.545 204.068 37.3949 203.906C36.8199 203.825 36.3759 203.759 36.0762 203.712C35.9264 203.689 35.8126 203.671 35.7365 203.659C35.6984 203.653 35.6698 203.648 35.6508 203.645C35.6413 203.644 35.6342 203.642 35.6296 203.642C35.6272 203.641 35.6255 203.641 35.6244 203.641C35.6238 203.641 35.6234 203.641 35.6232 203.641C35.6231 203.641 35.623 203.641 35.6229 203.641C35.6229 203.641 35.6229 203.641 35.6229 203.641C35.6229 203.641 35.6229 203.641 35.5408 204.134ZM55.7635 206.552C59.9616 206.733 64.5791 206.8 69.3816 206.647L69.3498 205.647C64.5763 205.799 59.9842 205.733 55.8066 205.553L55.7635 206.552ZM82.9594 205.581C87.5004 204.987 92.0197 204.126 96.3345 202.916L96.0644 201.953C91.8044 203.148 87.3333 204 82.8297 204.59L82.9594 205.581ZM109.024 197.86C111.06 196.737 112.977 195.479 114.744 194.074L114.121 193.291C112.403 194.658 110.533 195.885 108.541 196.984L109.024 197.86ZM114.744 194.074C116.571 192.62 118.12 191.081 119.418 189.465L118.638 188.839C117.39 190.393 115.894 191.881 114.121 193.291L114.744 194.074ZM124.612 177.604C125.253 173.493 124.993 169.144 124.128 164.654L123.146 164.843C123.996 169.256 124.242 173.484 123.624 177.45L124.612 177.604ZM120.529 152.231C119.081 148.294 117.386 144.3 115.609 140.304L114.695 140.71C116.468 144.698 118.154 148.669 119.59 152.576L120.529 152.231ZM110.302 128.581C108.501 124.575 106.783 120.619 105.315 116.759L104.38 117.115C105.859 121.002 107.586 124.98 109.39 128.991L110.302 128.581ZM101.622 104.536C100.72 100.043 100.509 95.8197 101.3 91.9556L100.321 91.755C99.4943 95.7913 99.7234 100.157 100.642 104.733L101.622 104.536ZM107.319 81.2031C108.74 79.8544 110.427 78.587 112.412 77.4112L111.903 76.5507C109.86 77.7606 108.111 79.0722 106.631 80.478L107.319 81.2031ZM112.412 77.4112C114.261 76.3161 116.076 75.4442 117.86 74.7704L117.507 73.8348C115.665 74.5303 113.798 75.428 111.903 76.5507L112.412 77.4112ZM129.685 72.9587C133.652 73.2009 137.538 74.24 141.408 75.7806L141.778 74.8515C137.84 73.2837 133.847 72.211 129.746 71.9606L129.685 72.9587ZM152.328 81.2066C155.818 83.1962 159.31 85.3424 162.89 87.4466L163.397 86.5845C159.843 84.496 156.317 82.3296 152.823 80.3379L152.328 81.2066ZM173.728 93.2945C177.47 95.0605 181.325 96.5477 185.331 97.5245L185.568 96.553C181.644 95.5963 177.855 94.1361 174.155 92.3902L173.728 93.2945ZM197.645 98.7049C199.657 98.5879 201.708 98.3128 203.803 97.8571L203.59 96.8799C201.547 97.3245 199.547 97.5926 197.587 97.7065L197.645 98.7049ZM203.803 97.8571C205.879 97.4055 207.988 96.8172 210.115 96.1141L209.801 95.1646C207.703 95.8582 205.628 96.4368 203.59 96.8799L203.803 97.8571ZM222.18 91.0879C226.044 89.1809 229.88 87.0308 233.599 84.7632L233.078 83.9094C229.38 86.1645 225.57 88.2996 221.737 90.1912L222.18 91.0879ZM244.502 77.6043C248.288 74.9502 251.818 72.3065 254.972 69.8462L254.357 69.0578C251.214 71.5093 247.697 74.1427 243.928 76.7855L244.502 77.6043ZM265.054 61.5931C266.6 60.2644 267.819 59.1845 268.652 58.4363C269.068 58.0623 269.388 57.7711 269.604 57.5733C269.712 57.4743 269.794 57.3987 269.849 57.3477C269.877 57.3222 269.898 57.3029 269.912 57.2899C269.919 57.2833 269.924 57.2784 269.928 57.2751C269.929 57.2734 269.931 57.2721 269.932 57.2713C269.932 57.2708 269.932 57.2705 269.933 57.2703C269.933 57.2701 269.933 57.2701 269.933 57.27C269.933 57.27 269.933 57.2699 269.933 57.2699C269.933 57.2699 269.933 57.2699 269.592 56.9042C269.251 56.5385 269.251 56.5384 269.251 56.5384C269.251 56.5385 269.251 56.5385 269.251 56.5385C269.251 56.5385 269.251 56.5386 269.251 56.5387C269.251 56.5388 269.251 56.5391 269.25 56.5395C269.249 56.5402 269.248 56.5414 269.246 56.5429C269.243 56.546 269.238 56.5507 269.231 56.557C269.218 56.5695 269.197 56.5884 269.17 56.6134C269.116 56.6634 269.035 56.738 268.928 56.8359C268.715 57.0317 268.397 57.3207 267.983 57.6925C267.156 58.4362 265.943 59.5112 264.403 60.8347L265.054 61.5931Z" fill="#0E625F"/>
<path d="M146.402 186.088C146.164 186.228 146.085 186.535 146.225 186.773L148.505 190.652C148.645 190.89 148.951 190.97 149.189 190.83C149.427 190.69 149.507 190.384 149.367 190.146L147.34 186.697L150.789 184.67C151.027 184.53 151.106 184.224 150.966 183.986C150.826 183.748 150.52 183.668 150.282 183.808L146.402 186.088ZM248.068 308.603L247.842 309.048L248.068 308.603ZM345.329 244.068L345.492 243.595L345.329 244.068ZM216.158 220.416L216.513 220.064L216.158 220.416ZM396.477 305.035C396.937 304.84 396.937 304.84 396.937 304.84C396.937 304.84 396.937 304.84 396.937 304.839C396.937 304.839 396.937 304.839 396.937 304.839C396.937 304.839 396.937 304.838 396.936 304.838C396.936 304.836 396.935 304.835 396.934 304.832C396.932 304.827 396.929 304.82 396.925 304.811C396.917 304.792 396.905 304.765 396.889 304.729C396.858 304.656 396.812 304.548 396.75 304.408C396.626 304.126 396.443 303.712 396.201 303.179C395.717 302.113 395 300.573 394.067 298.672L393.169 299.113C394.097 301.004 394.81 302.535 395.29 303.592C395.53 304.121 395.712 304.531 395.834 304.809C395.895 304.948 395.941 305.054 395.971 305.125C395.986 305.16 395.998 305.187 396.005 305.204C396.009 305.213 396.012 305.22 396.014 305.224C396.015 305.226 396.016 305.228 396.016 305.229C396.016 305.229 396.016 305.23 396.016 305.23C396.017 305.23 396.017 305.23 396.017 305.23C396.017 305.23 396.017 305.23 396.017 305.23C396.017 305.23 396.017 305.23 396.477 305.035ZM387.667 286.672C385.568 283.032 383.146 279.1 380.44 275.129L379.614 275.692C382.304 279.639 384.712 283.55 386.801 287.172L387.667 286.672ZM372.256 264.243C369.319 260.73 366.167 257.378 362.831 254.386L362.163 255.131C365.457 258.084 368.576 261.4 371.489 264.884L372.256 264.243ZM351.756 246.39C349.716 245.275 347.626 244.332 345.492 243.595L345.166 244.54C347.241 245.257 349.28 246.176 351.276 247.268L351.756 246.39ZM345.492 243.595C343.285 242.833 341.155 242.351 339.095 242.124L338.985 243.118C340.966 243.337 343.024 243.801 345.166 244.54L345.492 243.595ZM326.299 244.105C322.485 245.769 318.956 248.322 315.631 251.461L316.317 252.188C319.585 249.103 323.02 246.627 326.699 245.021L326.299 244.105ZM307.078 261.164C304.532 264.498 302.072 268.071 299.652 271.715L300.485 272.268C302.9 268.632 305.346 265.079 307.873 261.771L307.078 261.164ZM292.608 282.483C290.194 286.152 287.777 289.725 285.307 293.034L286.109 293.632C288.596 290.299 291.026 286.707 293.443 283.033L292.608 282.483ZM276.973 302.709C273.666 305.88 270.215 308.325 266.53 309.73L266.886 310.664C270.736 309.196 274.297 306.66 277.666 303.431L276.973 302.709ZM254.227 310.42C252.326 309.945 250.352 309.201 248.294 308.157L247.842 309.048C249.959 310.123 252.004 310.895 253.984 311.39L254.227 310.42ZM248.294 308.157C246.378 307.184 244.669 306.121 243.143 304.976L242.543 305.776C244.118 306.958 245.877 308.051 247.842 309.048L248.294 308.157ZM235.269 295.969C233.345 292.492 232.137 288.655 231.361 284.563L230.379 284.749C231.168 288.914 232.405 292.858 234.394 296.453L235.269 295.969ZM230.081 272.437C229.887 268.424 229.825 264.326 229.68 260.175L228.68 260.21C228.824 264.33 228.888 268.467 229.082 272.485L230.081 272.437ZM228.8 247.892C228.282 243.786 227.469 239.736 226.144 235.831L225.197 236.152C226.495 239.977 227.296 243.958 227.807 248.017L228.8 247.892ZM220.533 224.806C219.355 223.171 218.022 221.588 216.513 220.064L215.803 220.768C217.275 222.254 218.574 223.798 219.721 225.391L220.533 224.806ZM216.513 220.064C215.018 218.555 213.39 217.091 211.656 215.673L211.023 216.447C212.734 217.846 214.336 219.286 215.803 220.768L216.513 220.064ZM200.941 208.189C197.259 205.951 193.386 203.868 189.477 201.946L189.036 202.843C192.923 204.754 196.769 206.824 200.422 209.043L200.941 208.189ZM177.586 196.586C173.315 194.815 169.19 193.254 165.421 191.913L165.086 192.855C168.841 194.192 172.95 195.747 177.203 197.509L177.586 196.586ZM153.047 187.833C151.096 187.241 149.531 186.792 148.453 186.491C147.914 186.34 147.497 186.226 147.214 186.15C147.073 186.112 146.965 186.084 146.892 186.064C146.856 186.055 146.828 186.048 146.81 186.043C146.8 186.04 146.793 186.038 146.789 186.037C146.786 186.037 146.785 186.036 146.783 186.036C146.783 186.036 146.782 186.036 146.782 186.035C146.782 186.035 146.782 186.035 146.781 186.035C146.781 186.035 146.781 186.035 146.781 186.035C146.781 186.035 146.781 186.035 146.656 186.519C146.53 187.003 146.53 187.003 146.53 187.003C146.53 187.003 146.53 187.003 146.53 187.003C146.53 187.003 146.53 187.003 146.53 187.003C146.531 187.003 146.531 187.003 146.531 187.004C146.532 187.004 146.534 187.004 146.536 187.005C146.541 187.006 146.547 187.008 146.556 187.01C146.574 187.015 146.601 187.022 146.637 187.031C146.708 187.05 146.814 187.078 146.954 187.116C147.234 187.191 147.648 187.304 148.184 187.454C149.256 187.753 150.814 188.2 152.757 188.79L153.047 187.833Z" fill="#0E625F"/>
<g clip-path="url(#clip0_212_1795)">
<path d="M266.379 148.941L217.743 197.416L153.595 172.914L141.609 116.522C141.189 114.737 142.295 112.949 144.08 112.529C144.127 112.519 144.174 112.509 144.221 112.499L250.371 89.9367C252.155 89.5167 253.943 90.6231 254.363 92.408C254.374 92.4547 254.384 92.5017 254.393 92.5488L266.379 148.941Z" fill="#F1F2F2"/>
<path d="M153.595 172.914L130.872 163.875L146.544 139.742L153.595 172.914Z" fill="#0E625F"/>
<path d="M283.462 131.441L266.379 148.941L259.328 115.769L283.462 131.441Z" fill="#0E625F"/>
<path d="M266.316 148.642L283.462 131.441L303.205 224.323C303.946 227.842 303.269 231.512 301.319 234.535L273.847 216.695L229.602 187.962L228.37 186.733L266.316 148.642Z" fill="#0E625F"/>
<path d="M273.847 216.694L301.319 234.535C299.35 237.546 296.273 239.657 292.756 240.412L166.703 267.205C163.184 267.946 159.514 267.269 156.491 265.319L174.331 237.847L203.064 193.602L203.69 191.978L217.743 197.416L228.37 186.733L229.602 187.962L273.847 216.694Z" fill="#0E625F"/>
<path d="M203.69 191.978L203.064 193.602L174.332 237.847L156.491 265.319C153.48 263.351 151.369 260.273 150.614 256.756L130.872 163.875L203.69 191.978Z" fill="#0E625F"/>
<path d="M250.707 173.074C272.691 168.402 286.725 146.792 282.052 124.807C277.379 102.823 255.769 88.7892 233.785 93.4621C211.8 98.135 197.767 119.745 202.44 141.729C207.113 163.714 228.723 177.747 250.707 173.074Z" fill="#49AAEE"/>
<path d="M246.476 153.171C244.644 153.561 242.843 152.391 242.454 150.559L237.425 126.901L233.312 131.118C232.004 132.459 229.856 132.485 228.515 131.177C227.174 129.869 227.148 127.721 228.456 126.38L236.998 117.631C238.305 116.29 240.453 116.264 241.793 117.571C242.273 118.039 242.603 118.639 242.743 119.294L249.089 149.149C249.478 150.981 248.308 152.782 246.476 153.171Z" fill="#F1F2F2"/>
</g>
<defs>
<clipPath id="clip0_212_1795">
<rect width="156" height="156" fill="white" transform="translate(121 117.434) rotate(-12)"/>
</clipPath>
</defs>
</svg>
