<svg width="32" height="32" viewBox="0 0 32 32" fill="none" xmlns="http://www.w3.org/2000/svg">
<rect width="32" height="32" rx="6" fill="#F0FFF9"/>
<path d="M9.75 22.25H10.6667L19.8958 13.0208L18.9792 12.1041L9.75 21.3333V22.25ZM22.5417 12.125L19.875 9.45831L20.75 8.58331C20.9861 8.34719 21.2812 8.23261 21.6354 8.23956C21.9896 8.2465 22.2847 8.36803 22.5208 8.60414L23.4167 9.49997C23.6528 9.73608 23.7708 10.0277 23.7708 10.375C23.7708 10.7222 23.6528 11.0139 23.4167 11.25L22.5417 12.125ZM9.125 23.5C8.94444 23.5 8.79514 23.4409 8.67708 23.3229C8.55903 23.2048 8.5 23.0555 8.5 22.875V21.0833C8.5 21 8.51389 20.9236 8.54167 20.8541C8.56944 20.7847 8.61806 20.7153 8.6875 20.6458L19 10.3333L21.6667 13L11.3542 23.3125C11.2847 23.3819 11.2153 23.4305 11.1458 23.4583C11.0764 23.4861 11 23.5 10.9167 23.5H9.125ZM19.4375 12.5625L18.9792 12.1041L19.8958 13.0208L19.4375 12.5625Z" fill="#27AE60"/>
</svg>
