<svg width="36" height="36" viewBox="0 0 36 36" fill="none" xmlns="http://www.w3.org/2000/svg">
<rect width="36" height="36" rx="6" fill="#FDECEC"/>
<path d="M18 26.3332C16.8195 26.3332 15.7222 26.1214 14.7083 25.6978C13.6945 25.2741 12.8125 24.6873 12.0625 23.9373C11.3125 23.1873 10.7257 22.3054 10.3021 21.2915C9.87848 20.2776 9.66668 19.1804 9.66668 17.9998C9.66668 17.0554 9.80556 16.1665 10.0833 15.3332C10.3611 14.4998 10.75 13.7359 11.25 13.0415L8.97918 10.7707C8.85418 10.6457 8.79515 10.4998 8.80209 10.3332C8.80904 10.1665 8.87501 10.0207 9.00001 9.89567C9.12501 9.77067 9.27431 9.70817 9.44793 9.70817C9.62154 9.70817 9.77084 9.77067 9.89584 9.89567L25.8125 25.8123C25.9375 25.9373 26 26.0832 26 26.2498C26 26.4165 25.9375 26.5623 25.8125 26.6873C25.6875 26.8123 25.5382 26.8748 25.3646 26.8748C25.191 26.8748 25.0417 26.8123 24.9167 26.6873L22.9583 24.7498C22.2639 25.2498 21.5 25.6387 20.6667 25.9165C19.8333 26.1943 18.9445 26.3332 18 26.3332ZM18 25.0832C18.7639 25.0832 19.4861 24.9755 20.1667 24.7603C20.8472 24.545 21.4792 24.2429 22.0625 23.854L18.375 20.1873L17.2083 21.354C17.0833 21.479 16.9375 21.5415 16.7708 21.5415C16.6042 21.5415 16.4583 21.479 16.3333 21.354L13.7917 18.7915C13.6667 18.6665 13.6076 18.5103 13.6146 18.3228C13.6215 18.1353 13.6875 17.979 13.8125 17.854C13.9375 17.729 14.0938 17.6665 14.2813 17.6665C14.4688 17.6665 14.625 17.729 14.75 17.854L16.7708 19.8957L17.4375 19.229L12.1458 13.9373C11.757 14.5207 11.4549 15.1526 11.2396 15.8332C11.0243 16.5137 10.9167 17.2359 10.9167 17.9998C10.9167 20.0137 11.5938 21.6978 12.9479 23.0519C14.3021 24.4061 15.9861 25.0832 18 25.0832ZM24.75 22.9582L23.8542 22.0623C24.2431 21.479 24.5451 20.8471 24.7604 20.1665C24.9757 19.4859 25.0833 18.7637 25.0833 17.9998C25.0833 15.9859 24.4063 14.3019 23.0521 12.9478C21.6979 11.5936 20.0139 10.9165 18 10.9165C17.2361 10.9165 16.5139 11.0241 15.8333 11.2394C15.1528 11.4547 14.5208 11.7568 13.9375 12.1457L13.0417 11.2498C13.7361 10.7498 14.5 10.3609 15.3333 10.0832C16.1667 9.80539 17.0556 9.6665 18 9.6665C19.1667 9.6665 20.257 9.88178 21.2708 10.3123C22.2847 10.7429 23.1667 11.3332 23.9167 12.0832C24.6667 12.8332 25.257 13.7151 25.6875 14.729C26.1181 15.7429 26.3333 16.8332 26.3333 17.9998C26.3333 18.9443 26.1945 19.8332 25.9167 20.6665C25.6389 21.4998 25.25 22.2637 24.75 22.9582ZM20.1875 18.3748L19.2292 17.4373L21.25 15.4165C21.375 15.2915 21.5278 15.229 21.7083 15.229C21.8889 15.229 22.0486 15.2915 22.1875 15.4165C22.3264 15.5554 22.3958 15.7151 22.3958 15.8957C22.3958 16.0762 22.3264 16.2359 22.1875 16.3748L20.1875 18.3748Z" fill="#EB5757"/>
</svg>
