<svg width="38" height="35" viewBox="0 0 38 35" fill="none" xmlns="http://www.w3.org/2000/svg">
<path d="M19 32.6666C21.6042 32.6666 23.8177 31.7552 25.6406 29.9323C27.4635 28.1094 28.375 25.8958 28.375 23.2916C28.375 20.6875 27.4635 18.4739 25.6406 16.651C23.8177 14.8281 21.6042 13.9166 19 13.9166C16.3958 13.9166 14.1823 14.8281 12.3594 16.651C10.5365 18.4739 9.625 20.6875 9.625 23.2916C9.625 25.8958 10.5365 28.1094 12.3594 29.9323C14.1823 31.7552 16.3958 32.6666 19 32.6666ZM12.9864 13.5721C13.6541 13.1367 14.3652 12.7862 15.1198 12.5204C15.8743 12.2546 16.6509 12.0603 17.4495 11.9375L12.7099 2.53841H7.50161L12.9864 13.5721ZM25.0136 13.5721L30.5505 2.53841H25.2901L20.5505 11.9375C21.3491 12.0603 22.1257 12.2546 22.8802 12.5204C23.6348 12.7862 24.3459 13.1367 25.0136 13.5721ZM9.05609 30.4471C9.08012 30.2147 9.1342 29.9576 9.21833 29.6759C9.30246 29.3941 9.42465 29.0956 9.5849 28.7804C8.94389 27.7441 8.48116 26.6243 8.19672 25.421C7.91224 24.2177 7.83813 22.9791 7.97438 21.7051C7.97438 20.6634 8.15465 19.6752 8.51521 18.7403C8.8758 17.8055 9.3766 16.9642 10.0176 16.2163C9.5208 16.3018 9.0841 16.4801 8.7075 16.7512C8.3309 17.0223 8.06246 17.3462 7.90219 17.7228C6.35306 18.0994 5.14582 18.9708 4.28047 20.337C3.41509 21.7031 3.15066 23.2169 3.48719 24.8782C3.48719 26.4273 4.02806 27.7428 5.10979 28.8245C6.19153 29.9062 7.50696 30.4471 9.05609 30.4471ZM28.9439 30.4471C30.8296 30.3349 32.4215 29.5957 33.7195 28.2296C35.0176 26.8633 35.6667 25.2174 35.6667 23.2916C35.6667 21.3659 35.0176 19.7199 33.7195 18.3537C32.4215 16.9875 30.8296 16.2484 28.9439 16.1362C28.7837 16.1362 28.6234 16.1429 28.4632 16.1562C28.3029 16.1696 28.1426 16.1896 27.9824 16.2163C28.7596 17.1966 29.3666 18.2883 29.8033 19.4915C30.24 20.6948 30.4583 21.9615 30.4583 23.2916C30.4583 24.6218 30.24 25.8885 29.8033 27.0917C29.3666 28.295 28.7596 29.3867 27.9824 30.367C28.1426 30.3937 28.3029 30.4137 28.4632 30.4271C28.6234 30.4404 28.7837 30.4471 28.9439 30.4471ZM19 34.75C17.6645 34.75 16.4032 34.5437 15.2159 34.131C14.0287 33.7183 12.9503 33.1247 11.9808 32.3501C11.6148 32.473 11.2289 32.5565 10.8229 32.6005C10.4169 32.6446 10.0003 32.6666 9.57292 32.6666C7.0008 32.6666 4.80394 31.7559 2.98234 29.9343C1.16078 28.1127 0.25 25.9158 0.25 23.3437C0.25 20.8037 1.13675 18.6308 2.91026 16.8253C4.68377 15.0197 6.83254 14.0889 9.35656 14.0328C9.65038 14.0328 9.93083 14.0529 10.1979 14.0929C10.465 14.133 10.7321 14.1797 10.9992 14.2332L4.09615 0.455078H14.032L19 10.391L23.968 0.455078H33.9039L27.093 14.0889C27.3334 14.0355 27.5804 13.9954 27.8342 13.9687C28.0879 13.942 28.3483 13.9287 28.6154 13.9287C31.1661 13.9928 33.3263 14.9276 35.0958 16.7332C36.8653 18.5387 37.75 20.7249 37.75 23.2916C37.75 25.8985 36.8392 28.1127 35.0177 29.9343C33.1961 31.7559 30.9818 32.6666 28.375 32.6666C27.9557 32.6666 27.5477 32.6446 27.151 32.6005C26.7544 32.5565 26.3731 32.473 26.0072 32.3501C25.0377 33.098 23.9613 33.685 22.778 34.111C21.5948 34.537 20.3355 34.75 19 34.75ZM19 28.5L17.3854 24.9062L13.7917 23.2916L17.3854 21.6771L19 18.0833L20.6146 21.6771L24.2083 23.2916L20.6146 24.9062L19 28.5Z" fill="#E2B93B"/>
</svg>
