<svg width="40" height="40" viewBox="0 0 40 40" fill="none" xmlns="http://www.w3.org/2000/svg">
<path d="M33.2526 0.775932C32.0809 1.19397 30.0203 2.15547 28.6465 2.90795L26.1819 4.28748L27.3536 5.12357C30.7879 7.63182 33.0102 11.436 33.495 15.6164C33.6566 17.1214 33.8991 18.4591 34.0607 18.5845C34.9092 19.4624 38.0607 14.0697 39.3536 9.59661C39.7172 8.34249 40.0001 6.12687 40.0001 4.66372C40.0001 2.36449 39.8385 1.82104 38.99 0.984953C37.8182 -0.269173 36.2425 -0.310976 33.2526 0.775932Z" fill="#0E625F"/>
<path d="M13.9394 2.03003C5.9798 3.36777 0 9.47118 0 16.3271C0 18.7935 0.484849 19.0861 3.11111 18.2919C5.73737 17.5394 26.0202 4.7473 25.6566 4.07844C25.2929 3.53498 20.4848 2.11364 18.1818 1.90462C16.9697 1.77921 15.0707 1.86281 13.9394 2.03003Z" fill="#0E625F"/>
<path d="M6.86872 18.1665C1.697 20.5075 0.565688 26.9454 4.60609 31.1258C5.93943 32.5471 6.6667 32.9652 8.28286 33.216C11.8384 33.7594 15.3132 32.2127 17.0101 29.37C17.9798 27.6978 18.4243 24.6043 17.8586 22.974L17.4142 21.678H19.2324C20.7677 21.678 21.0505 21.8034 20.8485 22.3887C19.8788 25.9839 20.3637 28.4503 22.5051 30.875C26.7475 35.766 35.2324 32.9652 36.2021 26.4019C36.5253 24.2281 35.9596 21.8871 34.6667 20.2149C32.7273 17.623 28.0808 16.7451 24.6869 18.3337C23.394 18.9608 22.0606 19.1698 19.394 19.1698C16.7273 19.1698 15.394 18.9608 14.101 18.3337C12 17.3722 8.84852 17.2886 6.86872 18.1665ZM12.7273 20.1731C16.6465 21.8871 16.7273 28.4085 12.8889 30.5405C8.40407 33.007 3.23235 28.6175 4.80811 23.6428C5.25256 22.2215 6.94953 20.2985 8.08084 19.8805C9.21215 19.4624 11.3536 19.5878 12.7273 20.1731ZM30.9091 20.1731C34.8283 21.8871 34.9091 28.4085 31.0707 30.5405C26.5859 33.007 21.4142 28.6175 22.9899 23.6428C23.4344 22.2215 25.1313 20.2985 26.2627 19.8805C27.394 19.4624 29.5354 19.5878 30.9091 20.1731Z" fill="#0E625F"/>
<path d="M12.5252 37.1037C12.5252 38.2324 14.2626 39.5284 16.1616 39.8628C18.6666 40.2809 21.0101 39.7374 22.3434 38.3161C23.9192 36.6857 23.3535 36.1004 21.0505 36.9365C18.8283 37.7308 16.1212 37.7308 14.2626 36.9365C12.4848 36.1422 12.5252 36.1422 12.5252 37.1037Z" fill="#0E625F"/>
</svg>
